<svg xmlns="http://www.w3.org/2000/svg" width="168" height="168"><g data-name="Group 170" transform="translate(-161 -1328)"><circle data-name="Ellipse 7" cx="84" cy="84" r="84" transform="translate(161 1328)" fill="#fff"/><g data-name="Group 119"><g data-name="Group 117" transform="translate(186 1353)"><circle data-name="Ellipse 4" cx="40.687" cy="40.687" r="40.687" transform="translate(0 27.534)" fill="#947c4e"/><g data-name="Out line"><path data-name="Path 372" d="M61.952 44.083l-7.46 7.46a6.146 6.146 0 01-8.682 0L25.16 30.892a1.967 1.967 0 010-2.782L52.694.576a1.967 1.967 0 012.782 0l14.343 14.343 7.46-7.46a6.147 6.147 0 018.682 0l19.26 19.26 4.509-4.509a1.967 1.967 0 012.782 0l5.9 5.9a1.967 1.967 0 010 2.782L80.467 68.836l2.543 2.543a1.967 1.967 0 01.574 1.391v10.986l1.967 1.967.576-.576a1.968 1.968 0 012.782 0l29.5 29.5-2.782 2.782-28.11-28.111-18.853 18.853 6.476 6.476-2.782 2.782-7.867-7.867a1.967 1.967 0 010-2.782l2.543-2.543-10.982-10.985-18.277 18.277a1.967 1.967 0 01-2.782 0l-5.9-5.9a1.967 1.967 0 010-2.782L47.37 84.57l-2.543-2.543a1.967 1.967 0 010-2.782l15.734-15.733a1.967 1.967 0 012.782 0l.172.172a10.232 10.232 0 012.946-6.073 1.968 1.968 0 012.782 0l2.543 2.543 3.119-3.119zm-9.426-3.189l1.967 1.967a6.106 6.106 0 011.268 1.85l3.41-3.409-3.527-3.526a2.205 2.205 0 00-3.119 3.119zm1.558-36.146L29.332 29.5l19.26 19.26a2.205 2.205 0 103.119-3.119l-1.967-1.965a6.14 6.14 0 010-8.682L67.037 17.7zm29.094 5.493a2.207 2.207 0 00-3.119 0L56.577 33.724a6.112 6.112 0 011.849 1.27l25.158 25.161L108.339 35.4zm27.942 16.141l-3.118 3.118 3.119 3.119 3.119-3.119zm-77.855 77.856l3.119 3.119L53.27 90.471l-3.119-3.119zm28.687-36.554L48.999 80.637l7.053 7.053 12.952-12.954-2.543-2.543v-.005zM68.07 62a6.387 6.387 0 001.173 7.411l3.934 3.933a1.967 1.967 0 010 2.782 9.169 9.169 0 000 12.952l-2.782 2.782a13.048 13.048 0 01-3.825-9.127l-7.736 7.736 10.986 10.986L82.771 88.5l-2.543-2.543a1.967 1.967 0 01-.576-1.391V73.584zm6.5.935l3.119 3.119 3.119-3.119-3.124-3.118z"/></g></g></g></g></svg>