<svg xmlns="http://www.w3.org/2000/svg" width="168" height="168"><g data-name="Group 171" transform="translate(-514 -1317)"><circle data-name="Ellipse 7" cx="84" cy="84" r="84" transform="translate(514 1317)" fill="#fff"/><g data-name="Group 116"><path data-name="Path 461" d="M563.976 1362.969a38.21 38.21 0 11-38.21 38.21 38.21 38.21 0 0138.21-38.21z" fill="#947c4e"/><g data-name="004-binoculars"><path data-name="Path 374" d="M558.088 1418.651a20.968 20.968 0 1020.968-20.968 20.992 20.992 0 00-20.968 20.968zm38.473 0a17.505 17.505 0 11-17.505-17.505 17.525 17.525 0 0117.505 17.505z"/><path data-name="Path 375" d="M665.49 1404.241c0-.009-.007-.018-.012-.027l-14.047-29.118a20.153 20.153 0 00-9.031-9.181l-1.326-2.749a13.323 13.323 0 00-25.322 5.788v5.115a19.952 19.952 0 00-2.321 6.88h-6.456a19.952 19.952 0 00-2.327-6.88v-5.114a13.322 13.322 0 00-25.322-5.788l-1.326 2.749a20.155 20.155 0 00-9.031 9.181l-2.433 5.043a1.732 1.732 0 103.119 1.5l2.433-5.039a16.642 16.642 0 0131.631 7.23v21.3a28.165 28.165 0 00-6.452-7.913 1.731 1.731 0 00-2.243 2.638 24.553 24.553 0 11-5.826-3.693 1.732 1.732 0 001.426-3.156 28.119 28.119 0 00-27.719 2.632l3.537-7.333a1.732 1.732 0 10-3.119-1.5l-8.4 17.412c0 .009-.007.018-.012.027a28.122 28.122 0 1052.262 14.995h6.058a28.124 28.124 0 1052.262-14.995zm-17.175-27.64l9.183 19.039a28.1 28.1 0 00-40.814 9.5v-21.31a16.642 16.642 0 0131.631-7.229zm-35.094 39.172h-6.039v-31.361h6.039zm15.856-56.678a9.914 9.914 0 018.643 5.126 20 20 0 00-18.5 5.3v-.567a9.87 9.87 0 019.859-9.859zm-42 4.63a19.858 19.858 0 00-4.394.5 9.856 9.856 0 0118.5 4.733v.567a20.039 20.039 0 00-14.106-5.799zm54.269 79.588a24.662 24.662 0 1124.662-24.662 24.69 24.69 0 01-24.662 24.662z"/><path data-name="Path 376" d="M649.213 1399.22a1.732 1.732 0 10-1.3 3.208 17.5 17.5 0 11-6.6-1.281 1.732 1.732 0 000-3.463 20.98 20.98 0 107.908 1.536z"/></g></g></g></svg>