<svg xmlns="http://www.w3.org/2000/svg" width="168" height="168"><g data-name="Group 169" transform="translate(-892 -1317)"><circle data-name="Ellipse 6" cx="84" cy="84" r="84" transform="translate(892 1317)" fill="#fff"/><g data-name="Group 115" transform="translate(918 1352)"><ellipse data-name="Ellipse 2" cx="38.325" cy="38.21" rx="38.325" ry="38.21" transform="translate(0 13.713)" fill="#947c4e"/><g data-name="003-flag"><g data-name="Group 114"><path data-name="Path 373" d="M115.183 92.311L92.712 55.789a3.35 3.35 0 00-5.707 0l-2.917 4.742a1.57 1.57 0 002.672 1.646l2.913-4.744a.214.214 0 01.364 0l22.471 36.522a.213.213 0 01-.182.325H99.885L65.079 37.712a3.341 3.341 0 00-1.244-1.186V25.882a14.5 14.5 0 003.82.505c3.577 0 6.927-1.243 10.2-2.46 4.541-1.686 8.83-3.278 13.469-1.417a1.94 1.94 0 002.662-1.8V2.99a1.939 1.939 0 00-1.18-1.788c-5.889-2.511-11.051-.6-16.043 1.258-4.677 1.736-9.094 3.376-13.9 1.226a1.568 1.568 0 00-2.208 1.432v.059a1.608 1.608 0 00-.042.362v30.988a3.344 3.344 0 00-1.24 1.185L42.848 64.568l-5.4-8.779a3.35 3.35 0 00-5.707 0L9.273 92.311a3.35 3.35 0 002.853 5.106h100.203a3.35 3.35 0 002.853-5.106zM63.795 7.345c5.077 1.393 9.638-.3 14.067-1.944 4.382-1.627 8.533-3.167 12.995-1.6v15.244c-5.093-1.4-9.658.3-14.086 1.942-4.374 1.624-8.522 3.163-12.975 1.6zM28.25 94.277l5.381-8.746a1.569 1.569 0 00-2.672-1.644l-6.392 10.39H12.123a.213.213 0 01-.182-.325l22.471-36.518a.213.213 0 01.363 0l6.231 10.128-6.221 10.115a1.569 1.569 0 002.672 1.644l24.587-39.966a.213.213 0 01.363 0l33.795 54.922z"/></g></g></g></g></svg>